<svg width="29" height="29" viewBox="0 0 29 29" fill="none" xmlns="http://www.w3.org/2000/svg">
<path d="M27.625 13.7708C27.63 15.6957 27.1803 17.5944 26.3125 19.3125C25.2835 21.3713 23.7017 23.103 21.7442 24.3135C19.7867 25.5241 17.5308 26.1658 15.2292 26.1667C13.3044 26.1717 11.4056 25.722 9.6875 24.8542L1.375 27.625L4.14583 19.3125C3.27802 17.5944 2.82831 15.6957 2.83333 13.7708C2.83422 11.4692 3.47589 9.21334 4.68647 7.25581C5.89704 5.29829 7.6287 3.71646 9.6875 2.68751C11.4056 1.8197 13.3044 1.36999 15.2292 1.37501H15.9583C18.998 1.54271 21.869 2.8257 24.0217 4.97835C26.1743 7.13099 27.4573 10.002 27.625 13.0417V13.7708Z" stroke="black" stroke-width="2" stroke-linecap="round" stroke-linejoin="round"/>
</svg>
