<svg width="321" height="75" viewBox="0 0 321 75" fill="none" xmlns="http://www.w3.org/2000/svg">
<path d="M104.551 20.7125V67.945H117.428V20.7125H134.979V10H87V20.7125H104.551Z" fill="white"/>
<path d="M149.605 19.4952V10H137.958V19.4952H149.605ZM137.958 25.9876V67.945H149.605V25.9876H137.958Z" fill="white"/>
<path d="M155.904 25.9876V67.945H167.551V45.9519C167.551 41.6777 168.261 38.6208 169.683 36.7813C171.105 34.8877 173.401 33.9409 176.572 33.9409C179.361 33.9409 181.302 34.8065 182.395 36.5378C183.489 38.215 184.036 40.785 184.036 44.2476V67.945H195.682V42.1376C195.682 39.5406 195.436 37.1871 194.944 35.077C194.506 32.9129 193.713 31.1004 192.565 29.6396C191.417 28.1247 189.831 26.9615 187.808 26.1499C185.84 25.2843 183.298 24.8514 180.181 24.8514C177.72 24.8514 175.315 25.4195 172.964 26.5557C170.612 27.6378 168.699 29.3962 167.223 31.8308H166.976V25.9876H155.904Z" fill="white"/>
<path d="M215.757 37.2682V19.901H225.763C227.239 19.901 228.661 20.0092 230.028 20.2256C231.395 20.442 232.598 20.8748 233.636 21.5241C234.675 22.1192 235.495 22.9849 236.097 24.121C236.753 25.2572 237.081 26.7451 237.081 28.5846C237.081 30.4241 236.753 31.912 236.097 33.0481C235.495 34.1843 234.675 35.077 233.636 35.7263C232.598 36.3214 231.395 36.7272 230.028 36.9436C228.661 37.16 227.239 37.2682 225.763 37.2682H215.757ZM202.881 10V67.945H215.757V47.1692H229.29C232.953 47.1692 236.069 46.6552 238.639 45.6272C241.209 44.5452 243.287 43.1385 244.872 41.4072C246.513 39.6758 247.688 37.7011 248.399 35.4828C249.165 33.2105 249.547 30.9111 249.547 28.5846C249.547 26.204 249.165 23.9046 248.399 21.6864C247.688 19.4681 246.513 17.4934 244.872 15.762C243.287 14.0307 241.209 12.6511 238.639 11.6231C236.069 10.541 232.953 10 229.29 10H202.881Z" fill="white"/>
<path d="M282.025 42.4622H263.079C263.134 41.6506 263.298 40.7309 263.571 39.7029C263.899 38.6749 264.419 37.7011 265.13 36.7813C265.895 35.8615 266.879 35.1041 268.082 34.5089C269.34 33.8597 270.898 33.5351 272.757 33.5351C275.6 33.5351 277.705 34.2925 279.072 35.8074C280.494 37.3223 281.478 39.5406 282.025 42.4622ZM263.079 49.7662H293.671C293.89 46.5199 293.616 43.409 292.851 40.4333C292.085 37.4576 290.828 34.8065 289.078 32.4801C287.383 30.1536 285.196 28.3141 282.517 26.9615C279.838 25.5548 276.694 24.8514 273.085 24.8514C269.859 24.8514 266.907 25.4195 264.227 26.5557C261.603 27.6919 259.334 29.2609 257.42 31.2627C255.506 33.2105 254.03 35.5369 252.991 38.2421C251.952 40.9473 251.433 43.8689 251.433 47.0069C251.433 50.2531 251.925 53.2288 252.909 55.934C253.948 58.6392 255.397 60.9656 257.256 62.9133C259.115 64.8611 261.384 66.376 264.063 67.458C266.743 68.486 269.75 69 273.085 69C277.897 69 281.997 67.9179 285.387 65.7538C288.777 63.5896 291.293 59.9918 292.933 54.9601H282.681C282.298 56.2586 281.259 57.503 279.564 58.6933C277.869 59.8294 275.846 60.3975 273.495 60.3975C270.215 60.3975 267.699 59.5589 265.95 57.8817C264.2 56.2045 263.243 53.4993 263.079 49.7662Z" fill="white"/>
<path d="M312.47 25.9876V13.4085H300.824V25.9876H293.771V33.6974H300.824V58.4498C300.824 60.5598 301.18 62.2641 301.89 63.5626C302.601 64.8611 303.558 65.862 304.761 66.5653C306.019 67.2687 307.44 67.7286 309.026 67.945C310.666 68.2155 312.388 68.3508 314.193 68.3508C315.341 68.3508 316.516 68.3237 317.719 68.2696C318.922 68.2155 320.016 68.1073 321 67.945V59.0179C320.453 59.1261 319.879 59.2072 319.278 59.2613C318.676 59.3155 318.047 59.3425 317.391 59.3425C315.423 59.3425 314.111 59.0179 313.455 58.3686C312.798 57.7194 312.47 56.4209 312.47 54.4732V33.6974H321V25.9876H312.47Z" fill="white"/>
<path d="M50.4027 58.6266C51.0316 57.6833 51.8612 56.8906 52.8321 56.3051C53.803 55.7196 54.8912 55.3558 56.019 55.2396C57.1468 55.1234 58.2863 55.2578 59.3562 55.6331C60.426 56.0085 61.3997 56.6155 62.2078 57.4108C66.7554 51.7713 69.2345 44.7446 69.2325 37.5001C69.2325 20.0036 54.9982 5.76929 37.5018 5.76929C20.0053 5.76929 5.771 20.0036 5.771 37.5001C5.771 54.9965 20.0053 69.2308 37.5018 69.2308C41.5918 69.2398 45.6443 68.4516 49.4327 66.9102C49.384 66.784 49.3377 66.6577 49.295 66.5288C48.8588 65.2341 48.7263 63.8563 48.9076 62.5021C49.0889 61.1479 49.5792 59.8536 50.3406 58.7191L50.4027 58.6266ZM57.6438 26.915C59.4286 26.915 61.0128 27.6145 62.107 28.8859C63.2037 30.1605 63.6589 31.8368 63.3887 33.6064C63.087 35.3347 62.1952 36.905 60.8654 38.0494C59.5355 39.1938 57.8498 39.8416 56.0958 39.8822H56.0823C54.2974 39.8822 52.7132 39.1827 51.6191 37.9113C50.5224 36.6367 50.0671 34.9603 50.3374 33.1908C50.639 31.4624 51.5307 29.8921 52.8606 28.7477C54.1905 27.6032 55.8762 26.9555 57.6302 26.915H57.6438ZM41.5631 18.4322C42.4265 16.901 43.8084 15.7285 45.4599 15.1263C47.1481 14.5313 48.8799 14.6671 50.3361 15.5081C53.2664 17.1998 54.0984 21.2638 52.1911 24.5674C50.8492 26.8917 48.5031 28.23 46.2099 28.23C45.2303 28.2344 44.267 27.9793 43.4179 27.4908C40.4879 25.7993 39.6558 21.736 41.5631 18.4322ZM21.8985 19.6762C22.2277 17.9168 23.211 16.4851 24.6674 15.6439C26.1238 14.8026 27.8554 14.6674 29.5436 15.2622C31.1859 15.8798 32.5631 17.0479 33.4404 18.5674C34.3176 20.0868 34.6406 21.8636 34.3543 23.5946C34.0251 25.354 33.0418 26.7857 31.5854 27.6267C30.7345 28.1185 29.7685 28.3761 28.7857 28.3733C28.0779 28.3703 27.3757 28.247 26.7092 28.0086C25.0669 27.391 23.6897 26.2229 22.8125 24.7034C21.9352 23.184 21.6122 21.4072 21.8985 19.6762ZM14.1382 38.5524C12.7941 37.4196 11.8989 35.8439 11.6141 34.1094C11.3437 32.3398 11.7991 30.6635 12.8958 29.3889C15.1029 26.8246 19.2506 26.7623 22.1423 29.2506C25.0339 31.7389 25.5906 35.8492 23.3837 38.4143C22.2584 39.7218 20.6284 40.3794 18.9176 40.3794C17.1574 40.3603 15.4621 39.712 14.1382 38.5519V38.5524ZM43.7596 56.2748C41.4418 56.2842 39.2063 55.4165 37.5018 53.8459C35.7972 55.4166 33.5615 56.2843 31.2436 56.2748C29.0163 56.2746 26.8636 55.4721 25.1798 54.0143C23.4959 52.5565 22.3935 50.5409 22.0744 48.3366C21.7554 46.1323 22.2411 43.8868 23.4425 42.0114C24.644 40.1359 26.4808 38.7561 28.6166 38.1244C29.1835 36.2076 30.355 34.5255 31.9563 33.3292C33.5577 32.1329 35.5029 31.4865 37.5018 31.4865C39.5006 31.4865 41.4459 32.1329 43.0472 33.3292C44.6485 34.5255 45.82 36.2076 46.3869 38.1244C48.5227 38.7561 50.3596 40.1359 51.561 42.0114C52.7625 43.8868 53.2481 46.1323 52.9291 48.3366C52.6101 50.5409 51.5077 52.5565 49.8238 54.0143C48.1399 55.4721 45.9872 56.2746 43.7599 56.2748H43.7596Z" fill="#FF65C5"/>
<path d="M73.98 60.3191L73.9191 60.2276C73.2433 59.2122 72.2065 58.4919 71.0192 58.213C70.2206 58.0235 69.3868 58.0416 68.5973 58.2657C67.8077 58.4898 67.0887 58.9123 66.5087 59.4931L64.3813 61.6205C64.2474 61.7544 64.0884 61.8606 63.9134 61.9331C63.7384 62.0056 63.5508 62.0429 63.3614 62.0429C63.172 62.0429 62.9844 62.0056 62.8094 61.9331C62.6344 61.8606 62.4754 61.7544 62.3415 61.6205L60.2141 59.4931C59.7104 58.9895 59.1013 58.6039 58.4306 58.3642C57.7599 58.1244 57.0444 58.0365 56.3356 58.1067C55.6268 58.1769 54.9424 58.4034 54.3317 58.7701C53.7211 59.1367 53.1994 59.6342 52.8043 60.2268L52.7422 60.3193C52.1249 61.2402 51.7726 62.313 51.7236 63.4205C51.6747 64.528 51.931 65.6277 52.4646 66.5995C52.6179 66.7533 52.7341 66.9401 52.8043 67.1456C53.2397 67.7792 53.7911 68.3247 54.4294 68.7534L63.3623 74.7085L72.2952 68.7534C73.419 68.0016 74.2617 66.8983 74.6914 65.6164C74.9869 64.738 75.0765 63.8034 74.9531 62.8848C74.8298 61.9663 74.4968 61.0885 73.98 60.3191Z" fill="#FF65C5"/>
</svg>
