<svg width="140" height="50" viewBox="0 0 140 50" fill="none" xmlns="http://www.w3.org/2000/svg">
<path d="M44.172 17.048V38H49.824V17.048H57.528V12.296H36.468V17.048H44.172Z" fill="black"/>
<path d="M63.9478 16.508V12.296H58.8358V16.508H63.9478ZM58.8358 19.388V38H63.9478V19.388H58.8358Z" fill="black"/>
<path d="M66.7131 19.388V38H71.8251V28.244C71.8251 26.348 72.1371 24.992 72.7611 24.176C73.3851 23.336 74.3931 22.916 75.7851 22.916C77.0091 22.916 77.8611 23.3 78.3411 24.068C78.8211 24.812 79.0611 25.952 79.0611 27.488V38H84.1731V26.552C84.1731 25.4 84.0651 24.356 83.8491 23.42C83.6571 22.46 83.3091 21.656 82.8051 21.008C82.3011 20.336 81.6051 19.82 80.7171 19.46C79.8531 19.076 78.7371 18.884 77.3691 18.884C76.2891 18.884 75.2331 19.136 74.2011 19.64C73.1691 20.12 72.3291 20.9 71.6811 21.98H71.5731V19.388H66.7131Z" fill="black"/>
<path d="M92.9849 24.392V16.688H97.3769C98.0249 16.688 98.6489 16.736 99.2489 16.832C99.8489 16.928 100.377 17.12 100.833 17.408C101.289 17.672 101.649 18.056 101.913 18.56C102.201 19.064 102.345 19.724 102.345 20.54C102.345 21.356 102.201 22.016 101.913 22.52C101.649 23.024 101.289 23.42 100.833 23.708C100.377 23.972 99.8489 24.152 99.2489 24.248C98.6489 24.344 98.0249 24.392 97.3769 24.392H92.9849ZM87.3329 12.296V38H92.9849V28.784H98.9249C100.533 28.784 101.901 28.556 103.029 28.1C104.157 27.62 105.069 26.996 105.765 26.228C106.485 25.46 107.001 24.584 107.313 23.6C107.649 22.592 107.817 21.572 107.817 20.54C107.817 19.484 107.649 18.464 107.313 17.48C107.001 16.496 106.485 15.62 105.765 14.852C105.069 14.084 104.157 13.472 103.029 13.016C101.901 12.536 100.533 12.296 98.9249 12.296H87.3329Z" fill="black"/>
<path d="M122.073 26.696H113.757C113.781 26.336 113.853 25.928 113.973 25.472C114.117 25.016 114.345 24.584 114.657 24.176C114.993 23.768 115.425 23.432 115.953 23.168C116.505 22.88 117.189 22.736 118.005 22.736C119.253 22.736 120.177 23.072 120.777 23.744C121.401 24.416 121.833 25.4 122.073 26.696ZM113.757 29.936H127.185C127.281 28.496 127.161 27.116 126.825 25.796C126.489 24.476 125.937 23.3 125.169 22.268C124.425 21.236 123.465 20.42 122.289 19.82C121.113 19.196 119.733 18.884 118.149 18.884C116.733 18.884 115.437 19.136 114.261 19.64C113.109 20.144 112.113 20.84 111.273 21.728C110.433 22.592 109.785 23.624 109.329 24.824C108.873 26.024 108.645 27.32 108.645 28.712C108.645 30.152 108.861 31.472 109.293 32.672C109.749 33.872 110.385 34.904 111.201 35.768C112.017 36.632 113.013 37.304 114.189 37.784C115.365 38.24 116.685 38.468 118.149 38.468C120.261 38.468 122.061 37.988 123.549 37.028C125.037 36.068 126.141 34.472 126.861 32.24H122.361C122.193 32.816 121.737 33.368 120.993 33.896C120.249 34.4 119.361 34.652 118.329 34.652C116.889 34.652 115.785 34.28 115.017 33.536C114.249 32.792 113.829 31.592 113.757 29.936Z" fill="black"/>
<path d="M135.437 19.388V13.808H130.325V19.388H127.229V22.808H130.325V33.788C130.325 34.724 130.481 35.48 130.793 36.056C131.105 36.632 131.525 37.076 132.053 37.388C132.605 37.7 133.229 37.904 133.925 38C134.645 38.12 135.401 38.18 136.193 38.18C136.697 38.18 137.213 38.168 137.741 38.144C138.269 38.12 138.749 38.072 139.181 38V34.04C138.941 34.088 138.689 34.124 138.425 34.148C138.161 34.172 137.885 34.184 137.597 34.184C136.733 34.184 136.157 34.04 135.869 33.752C135.581 33.464 135.437 32.888 135.437 32.024V22.808H139.181V19.388H135.437Z" fill="black"/>
<path d="M20.1772 33.7957C20.454 33.3807 20.819 33.0319 21.2462 32.7742C21.6734 32.5166 22.1522 32.3565 22.6484 32.3054C23.1447 32.2543 23.646 32.3134 24.1168 32.4786C24.5875 32.6437 25.016 32.9108 25.3715 33.2607C27.3724 30.7794 28.4632 27.6876 28.4624 24.5C28.4624 16.8016 22.1993 10.5385 14.5008 10.5385C6.80241 10.5385 0.539307 16.8016 0.539307 24.5C0.539307 32.1985 6.80241 38.4616 14.5008 38.4616C16.3004 38.4655 18.0836 38.1187 19.7505 37.4405C19.729 37.3849 19.7087 37.3294 19.6899 37.2727C19.498 36.703 19.4396 36.0968 19.5194 35.5009C19.5992 34.9051 19.8149 34.3356 20.15 33.8364L20.1772 33.7957ZM23.3633 19.8426C24.1487 19.8426 24.8457 20.1504 25.3271 20.7098C25.8097 21.2706 26.01 22.0082 25.8911 22.7868C25.7584 23.5473 25.366 24.2382 24.7808 24.7417C24.1957 25.2453 23.454 25.5303 22.6822 25.5482H22.6763C21.8909 25.5482 21.1939 25.2404 20.7125 24.681C20.2299 24.1201 20.0296 23.3825 20.1485 22.6039C20.2812 21.8435 20.6736 21.1525 21.2587 20.649C21.8439 20.1454 22.5856 19.8604 23.3574 19.8426H23.3633ZM16.2878 16.1102C16.6677 15.4364 17.2758 14.9206 18.0024 14.6555C18.7452 14.3938 19.5072 14.4535 20.148 14.8236C21.4373 15.5679 21.8034 17.3561 20.9642 18.8097C20.3737 19.8323 19.3415 20.4212 18.3324 20.4212C17.9014 20.4231 17.4776 20.3109 17.104 20.0959C15.8147 19.3517 15.4486 17.5638 16.2878 16.1102ZM7.63542 16.6575C7.78027 15.8834 8.21292 15.2534 8.85372 14.8833C9.49452 14.5132 10.2565 14.4537 10.9993 14.7154C11.7219 14.9871 12.3278 15.5011 12.7138 16.1696C13.0998 16.8382 13.2419 17.62 13.116 18.3816C12.9711 19.1558 12.5385 19.7857 11.8977 20.1558C11.5232 20.3721 11.0982 20.4855 10.6658 20.4843C10.3543 20.4829 10.0454 20.4287 9.7521 20.3238C9.0295 20.052 8.42354 19.5381 8.03755 18.8695C7.65156 18.2009 7.50943 17.4192 7.63542 16.6575ZM4.22087 24.9631C3.62946 24.4646 3.23559 23.7713 3.11029 23.0081C2.9913 22.2295 3.19168 21.4919 3.67423 20.9311C4.64535 19.8028 6.47034 19.7754 7.74267 20.8703C9.01499 21.9651 9.25995 23.7736 8.28891 24.9023C7.79375 25.4776 7.07656 25.767 6.32383 25.767C5.54933 25.7585 4.8034 25.4733 4.22087 24.9628V24.9631ZM17.2543 32.7609C16.2345 32.765 15.2508 32.3833 14.5008 31.6922C13.7508 32.3833 12.7671 32.7651 11.7472 32.7609C10.7672 32.7608 9.82007 32.4077 9.07916 31.7663C8.33825 31.1248 7.85319 30.238 7.71281 29.2681C7.57244 28.2982 7.78613 27.3102 8.31477 26.485C8.84341 25.6598 9.65161 25.0527 10.5914 24.7747C10.8408 23.9313 11.3563 23.1912 12.0609 22.6649C12.7654 22.1385 13.6213 21.8541 14.5008 21.8541C15.3803 21.8541 16.2363 22.1385 16.9408 22.6649C17.6454 23.1912 18.1609 23.9313 18.4103 24.7747C19.3501 25.0527 20.1583 25.6598 20.6869 26.485C21.2156 27.3102 21.4293 28.2982 21.2889 29.2681C21.1485 30.238 20.6634 31.1248 19.9225 31.7663C19.1816 32.4077 18.2344 32.7608 17.2544 32.7609H17.2543Z" fill="#FF65C5"/>
<path d="M30.5513 34.5404L30.5245 34.5001C30.2271 34.0534 29.7709 33.7365 29.2485 33.6137C28.8971 33.5303 28.5303 33.5383 28.1829 33.6369C27.8355 33.7355 27.5191 33.9214 27.2639 34.1769L26.3278 35.113C26.2689 35.1719 26.1989 35.2187 26.1219 35.2506C26.045 35.2825 25.9624 35.2989 25.8791 35.2989C25.7957 35.2989 25.7132 35.2825 25.6362 35.2506C25.5592 35.2187 25.4893 35.1719 25.4303 35.113L24.4943 34.1769C24.2727 33.9554 24.0046 33.7857 23.7095 33.6802C23.4144 33.5748 23.0996 33.5361 22.7877 33.5669C22.4758 33.5978 22.1747 33.6975 21.906 33.8588C21.6373 34.0201 21.4078 34.2391 21.2339 34.4998L21.2067 34.5405C20.935 34.9457 20.78 35.4177 20.7585 35.905C20.7369 36.3923 20.8497 36.8762 21.0845 37.3038C21.152 37.3714 21.2031 37.4536 21.2339 37.5441C21.4255 37.8229 21.6682 38.0629 21.949 38.2515L25.8795 40.8717L29.81 38.2515C30.3044 37.9207 30.6752 37.4353 30.8643 36.8712C30.9943 36.4847 31.0337 36.0735 30.9794 35.6693C30.9252 35.2652 30.7787 34.8789 30.5513 34.5404Z" fill="#FF65C5"/>
</svg>
